<svg width="139" height="41" viewBox="0 0 139 41" fill="none" xmlns="http://www.w3.org/2000/svg">
<path d="M1.84644 23.8495C1.84644 24.9541 2.74192 25.8496 3.84655 25.8496L22.0088 25.8496C23.1101 25.8496 24.0029 24.9568 24.0029 23.8555L24.0029 5.69324C24.0029 4.58861 23.1074 3.69313 22.0028 3.69313L3.84654 3.69314C2.74191 3.69314 1.84643 4.58862 1.84643 5.69325L1.84644 23.8495Z" fill="#3E05E1" fill-opacity="0.7"/>
<path d="M12.9246 34.9276C12.9246 36.0323 13.82 36.9277 14.9247 36.9277L33.0809 36.9277C34.1856 36.9277 35.081 36.0323 35.081 34.9276L35.081 16.7714C35.081 15.6667 34.1856 14.7713 33.0809 14.7713L14.9186 14.7713C13.8173 14.7713 12.9246 15.664 12.9246 16.7653L12.9246 34.9276Z" fill="#00C0FD" fill-opacity="0.7"/>
<path d="M51.4475 31.3184H46.5216V15.356H51.6657C53.2141 15.356 54.5391 15.6755 55.6407 16.3146C56.7423 16.9486 57.5866 17.8605 58.1738 19.0504C58.761 20.2351 59.0545 21.6536 59.0545 23.306C59.0545 24.9687 58.7584 26.4003 58.166 27.6006C57.5737 28.7957 56.7111 29.7154 55.5784 30.3597C54.4456 30.9988 53.0686 31.3184 51.4475 31.3184ZM48.4545 29.6036H51.3228C52.6426 29.6036 53.7363 29.349 54.6041 28.8398C55.4718 28.3306 56.1188 27.6058 56.5448 26.6653C56.9709 25.7248 57.184 24.605 57.184 23.306C57.184 22.0174 56.9735 20.908 56.5526 19.9779C56.1317 19.0426 55.503 18.3255 54.6664 17.8267C53.8299 17.3227 52.7881 17.0707 51.541 17.0707H48.4545V29.6036ZM65.7899 31.5989C65.0313 31.5989 64.3428 31.4561 63.7245 31.1703C63.1061 30.8793 62.6151 30.461 62.2514 29.9154C61.8877 29.3646 61.7058 28.6995 61.7058 27.9201C61.7058 27.2342 61.8409 26.6782 62.1111 26.2522C62.3813 25.8209 62.7424 25.4831 63.1945 25.2389C63.6465 24.9947 64.1454 24.8129 64.691 24.6933C65.2417 24.5686 65.7951 24.4699 66.3511 24.3972C67.0786 24.3036 67.6683 24.2335 68.1204 24.1867C68.5776 24.1348 68.9102 24.049 69.118 23.9295C69.3311 23.81 69.4376 23.6022 69.4376 23.306V23.2436C69.4376 22.4746 69.2271 21.8771 68.8063 21.451C68.3906 21.0249 67.7592 20.8119 66.9123 20.8119C66.0341 20.8119 65.3457 21.0041 64.8468 21.3886C64.348 21.7731 63.9973 22.1836 63.7946 22.6201L62.0487 21.9966C62.3605 21.2691 62.7762 20.7027 63.2958 20.2974C63.8206 19.887 64.3922 19.6012 65.0105 19.4401C65.634 19.2738 66.2472 19.1907 66.8499 19.1907C67.2344 19.1907 67.6761 19.2374 68.1749 19.331C68.679 19.4193 69.1648 19.6038 69.6324 19.8844C70.1053 20.1649 70.4976 20.5884 70.8094 21.1548C71.1211 21.7212 71.277 22.4798 71.277 23.4307V31.3184H69.4376V29.6972H69.3441C69.2193 29.957 69.0115 30.235 68.7205 30.5312C68.4295 30.8273 68.0424 31.0793 67.5592 31.2872C67.076 31.495 66.4862 31.5989 65.7899 31.5989ZM66.0705 29.9466C66.798 29.9466 67.4111 29.8037 67.9099 29.5179C68.414 29.2321 68.7933 28.8632 69.0479 28.4111C69.3077 27.9591 69.4376 27.4836 69.4376 26.9848V25.3013C69.3596 25.3948 69.1882 25.4805 68.9232 25.5585C68.6634 25.6312 68.362 25.6962 68.0191 25.7533C67.6813 25.8053 67.3514 25.8521 67.0292 25.8936C66.7122 25.93 66.455 25.9612 66.2576 25.9872C65.7795 26.0495 65.3327 26.1508 64.917 26.2911C64.5065 26.4262 64.1739 26.6315 63.9193 26.9069C63.6699 27.1771 63.5452 27.546 63.5452 28.0136C63.5452 28.6528 63.7816 29.136 64.2545 29.4634C64.7325 29.7855 65.3379 29.9466 66.0705 29.9466ZM80.0603 19.3466V20.9054H73.8562V19.3466H80.0603ZM75.6644 16.4783H77.5038V27.8889C77.5038 28.4085 77.5792 28.7983 77.7298 29.0581C77.8857 29.3127 78.0832 29.4841 78.3222 29.5725C78.5664 29.6556 78.8236 29.6972 79.0938 29.6972C79.2965 29.6972 79.4627 29.6868 79.5926 29.666C79.7226 29.64 79.8265 29.6192 79.9044 29.6036L80.2785 31.256C80.1538 31.3028 79.9798 31.3495 79.7563 31.3963C79.5329 31.4483 79.2497 31.4742 78.9068 31.4742C78.3872 31.4742 77.8779 31.3625 77.3791 31.1391C76.8855 30.9157 76.475 30.5753 76.1476 30.1181C75.8255 29.6608 75.6644 29.084 75.6644 28.3878V16.4783ZM86.5696 31.5989C85.811 31.5989 85.1225 31.4561 84.5042 31.1703C83.8859 30.8793 83.3948 30.461 83.0311 29.9154C82.6674 29.3646 82.4855 28.6995 82.4855 27.9201C82.4855 27.2342 82.6206 26.6782 82.8908 26.2522C83.161 25.8209 83.5221 25.4831 83.9742 25.2389C84.4263 24.9947 84.9251 24.8129 85.4707 24.6933C86.0215 24.5686 86.5748 24.4699 87.1308 24.3972C87.8583 24.3036 88.448 24.2335 88.9001 24.1867C89.3574 24.1348 89.6899 24.049 89.8977 23.9295C90.1108 23.81 90.2173 23.6022 90.2173 23.306V23.2436C90.2173 22.4746 90.0069 21.8771 89.586 21.451C89.1703 21.0249 88.539 20.8119 87.692 20.8119C86.8139 20.8119 86.1254 21.0041 85.6266 21.3886C85.1277 21.7731 84.777 22.1836 84.5743 22.6201L82.8285 21.9966C83.1402 21.2691 83.5559 20.7027 84.0755 20.2974C84.6003 19.887 85.1719 19.6012 85.7902 19.4401C86.4138 19.2738 87.0269 19.1907 87.6297 19.1907C88.0142 19.1907 88.4558 19.2374 88.9547 19.331C89.4587 19.4193 89.9445 19.6038 90.4122 19.8844C90.885 20.1649 91.2773 20.5884 91.5891 21.1548C91.9008 21.7212 92.0567 22.4798 92.0567 23.4307V31.3184H90.2173V29.6972H90.1238C89.9991 29.957 89.7912 30.235 89.5002 30.5312C89.2093 30.8273 88.8222 31.0793 88.3389 31.2872C87.8557 31.495 87.2659 31.5989 86.5696 31.5989ZM86.8502 29.9466C87.5777 29.9466 88.1908 29.8037 88.6897 29.5179C89.1937 29.2321 89.573 28.8632 89.8276 28.4111C90.0874 27.9591 90.2173 27.4836 90.2173 26.9848V25.3013C90.1394 25.3948 89.9679 25.4805 89.7029 25.5585C89.4431 25.6312 89.1417 25.6962 88.7988 25.7533C88.461 25.8053 88.1311 25.8521 87.8089 25.8936C87.492 25.93 87.2347 25.9612 87.0373 25.9872C86.5593 26.0495 86.1124 26.1508 85.6967 26.2911C85.2862 26.4262 84.9537 26.6315 84.6991 26.9069C84.4496 27.1771 84.3249 27.546 84.3249 28.0136C84.3249 28.6528 84.5614 29.136 85.0342 29.4634C85.5122 29.7855 86.1176 29.9466 86.8502 29.9466Z" fill="#737171"/>
<path d="M95.6335 35.8078V19.3466H97.4106V21.2483H97.6288C97.7639 21.0405 97.951 20.7755 98.19 20.4533C98.4342 20.126 98.7824 19.835 99.2344 19.5804C99.6917 19.3206 100.31 19.1907 101.089 19.1907C102.097 19.1907 102.986 19.4427 103.755 19.9467C104.524 20.4507 105.124 21.1652 105.555 22.0901C105.987 23.015 106.202 24.1062 106.202 25.3636C106.202 26.6315 105.987 27.7305 105.555 28.6606C105.124 29.5855 104.527 30.3025 103.763 30.8117C102.999 31.3158 102.118 31.5678 101.121 31.5678C100.352 31.5678 99.7358 31.4405 99.2734 31.1859C98.8109 30.9261 98.455 30.6325 98.2056 30.3051C97.9562 29.9726 97.7639 29.6972 97.6288 29.4789H97.4729V35.8078H95.6335ZM97.4418 25.3325C97.4418 26.2366 97.5743 27.0342 97.8393 27.7253C98.1043 28.4111 98.4914 28.9489 99.0006 29.3386C99.5098 29.7232 100.133 29.9154 100.871 29.9154C101.64 29.9154 102.282 29.7128 102.796 29.3075C103.316 28.897 103.706 28.3462 103.965 27.6551C104.23 26.9588 104.363 26.1846 104.363 25.3325C104.363 24.4907 104.233 23.7321 103.973 23.0566C103.719 22.3759 103.332 21.8381 102.812 21.4432C102.298 21.0431 101.651 20.843 100.871 20.843C100.123 20.843 99.4942 21.0327 98.985 21.412C98.4758 21.7861 98.0913 22.3109 97.8315 22.9864C97.5717 23.6567 97.4418 24.4387 97.4418 25.3325ZM111.067 15.356V31.3184H109.228V15.356H111.067ZM122.2 26.4236V19.3466H124.04V31.3184H122.2V29.2919H122.076C121.795 29.8998 121.359 30.4168 120.766 30.8429C120.174 31.2638 119.426 31.4742 118.522 31.4742C117.773 31.4742 117.108 31.3106 116.526 30.9832C115.944 30.6507 115.487 30.1518 115.154 29.4867C114.822 28.8164 114.656 27.9721 114.656 26.9536V19.3466H116.495V26.8289C116.495 27.7019 116.739 28.3982 117.228 28.9178C117.721 29.4374 118.35 29.6972 119.114 29.6972C119.571 29.6972 120.036 29.5803 120.509 29.3464C120.987 29.1126 121.387 28.7541 121.709 28.2709C122.037 27.7876 122.2 27.1719 122.2 26.4236ZM136.108 22.0277L134.456 22.4954C134.352 22.22 134.199 21.9524 133.996 21.6926C133.799 21.4276 133.528 21.2094 133.186 21.0379C132.843 20.8664 132.404 20.7807 131.868 20.7807C131.136 20.7807 130.525 20.9496 130.037 21.2873C129.553 21.6199 129.312 22.0433 129.312 22.5577C129.312 23.015 129.478 23.3761 129.811 23.6411C130.143 23.9061 130.663 24.127 131.37 24.3036L133.147 24.7401C134.217 24.9999 135.015 25.3974 135.539 25.9326C136.064 26.4626 136.327 27.1459 136.327 27.9825C136.327 28.6684 136.129 29.2815 135.734 29.8219C135.345 30.3623 134.799 30.7884 134.097 31.1001C133.396 31.4119 132.58 31.5678 131.65 31.5678C130.429 31.5678 129.418 31.3028 128.618 30.7728C127.818 30.2428 127.311 29.4686 127.098 28.4501L128.844 28.0136C129.01 28.658 129.325 29.1412 129.787 29.4634C130.255 29.7855 130.865 29.9466 131.619 29.9466C132.476 29.9466 133.157 29.7647 133.661 29.401C134.17 29.0321 134.425 28.5904 134.425 28.076C134.425 27.6603 134.279 27.3122 133.988 27.0316C133.697 26.7458 133.25 26.5328 132.648 26.3925L130.652 25.9248C129.556 25.665 128.751 25.2623 128.236 24.7167C127.727 24.1659 127.472 23.4775 127.472 22.6513C127.472 21.9758 127.662 21.3782 128.041 20.8586C128.426 20.339 128.948 19.9311 129.608 19.6349C130.273 19.3388 131.027 19.1907 131.868 19.1907C133.053 19.1907 133.983 19.4505 134.659 19.9701C135.339 20.4897 135.823 21.1756 136.108 22.0277Z" fill="#4DD3FE"/>
</svg>
