<svg width="18" height="9" viewBox="0 0 18 9" fill="none" xmlns="http://www.w3.org/2000/svg">
<path d="M9.00001 8.66667C8.72741 8.6672 8.46324 8.57226 8.25334 8.39833L1.25334 2.565C1.01509 2.36697 0.865258 2.08241 0.836815 1.77391C0.808372 1.46541 0.903645 1.15825 1.10167 0.919996C1.2997 0.681743 1.58426 0.531915 1.89276 0.503472C2.20126 0.475029 2.50842 0.570301 2.74667 0.768329L9.00001 5.995L15.2533 0.954997C15.3727 0.858086 15.51 0.785716 15.6574 0.742046C15.8048 0.698375 15.9594 0.684266 16.1122 0.700528C16.2651 0.716791 16.4132 0.763103 16.5481 0.836806C16.683 0.910509 16.8021 1.01015 16.8983 1.13C17.0052 1.24995 17.0861 1.39069 17.136 1.54337C17.186 1.69606 17.2038 1.85741 17.1885 2.01732C17.1731 2.17722 17.1249 2.33224 17.0469 2.47266C16.9689 2.61307 16.8627 2.73586 16.735 2.83333L9.73501 8.46833C9.51907 8.61477 9.26029 8.6846 9.00001 8.66667Z" fill="#8993A4"/>
</svg>
