<svg width="19" height="19" viewBox="0 0 19 19" fill="none" xmlns="http://www.w3.org/2000/svg">
<path d="M0.331146 11.6785C0.331146 12.2896 0.826488 12.7849 1.43752 12.7849L11.4841 12.7849C12.0933 12.7849 12.5872 12.2911 12.5872 11.6819L12.5872 1.63528C12.5872 1.02424 12.0918 0.528904 11.4808 0.528904L1.43752 0.528905C0.826486 0.528905 0.331145 1.02425 0.331145 1.63528L0.331146 11.6785Z" fill="#3E05E1" fill-opacity="0.7"/>
<path d="M6.45914 17.8079C6.45914 18.419 6.95448 18.9143 7.56551 18.9143L17.6088 18.9143C18.2198 18.9143 18.7151 18.419 18.7151 17.8079L18.7151 7.76467C18.7151 7.15364 18.2198 6.6583 17.6088 6.6583L7.56218 6.6583C6.95298 6.6583 6.45914 7.15215 6.45914 7.76134L6.45914 17.8079Z" fill="#00C0FD" fill-opacity="0.7"/>
</svg>
