<svg width="198" height="48" viewBox="0 0 198 48" fill="none" xmlns="http://www.w3.org/2000/svg">
<path fill-rule="evenodd" clip-rule="evenodd" d="M10.604 25.404C12.216 30.1 7.97 34.1 4.36 36.424H4.358L4.312 36.434C2.484 37.618 -0.996001 40.028 3.538 40.354C5.6676 40.4605 7.78475 39.9715 9.652 38.942C9.75962 38.8877 9.89999 38.8192 10.0641 38.7391C11.2111 38.1794 13.5163 37.0546 13.882 36.262C13.7747 36.4954 13.6572 36.7448 13.5335 37.0074C12.3351 39.5503 10.5537 43.3303 11.868 45.832C13.634 49.226 18.16 42.858 19.06 41.538C19.1731 41.373 19.3339 41.1041 19.532 40.7727C20.7456 38.7426 23.3617 34.3665 25.026 37.138C25.8201 38.4383 26.0704 39.9884 26.3211 41.5415C26.6381 43.5047 26.9559 45.4729 28.374 46.948C31.458 50.156 33.194 45.228 33.194 42.804C33.1958 42.6337 33.1902 42.3906 33.1835 42.0976C33.1295 39.7489 33.002 34.1931 36 37.184C36.4409 37.6249 36.9276 38.1943 37.4541 38.8102C39.3231 40.9969 41.6941 43.7707 44.3 43.468C47.2218 43.1441 44.0855 39.206 42.4579 37.1624C42.0657 36.6699 41.7611 36.2874 41.65 36.092C42.154 36.494 46.694 39.308 46.694 36.982C46.7063 35.625 45.0345 34.4321 43.7315 33.5023C43.3388 33.222 42.9795 32.9657 42.71 32.736C38.41 29.07 39.27 25.436 41.2 20.724C44.578 12.564 39.022 3.21001 30.962 0.778008C22.252 -1.83399 12.62 2.28001 9.38 10.96C8.55935 13.17 8.20855 15.5268 8.35 17.88C8.4672 19.8812 9.13716 21.5829 9.82968 23.342C10.0944 24.0143 10.3623 24.695 10.604 25.404ZM26 21.7312C29.1653 21.7312 31.7312 19.1653 31.7312 16C31.7312 12.8347 29.1653 10.2688 26 10.2688C22.8347 10.2688 20.2688 12.8347 20.2688 16C20.2688 19.1653 22.8347 21.7312 26 21.7312Z" fill="#3699FF"/>
<path fill-rule="evenodd" clip-rule="evenodd" d="M10.604 25.404C12.216 30.1 7.97 34.1 4.36 36.424H4.358L4.312 36.434C2.484 37.618 -0.996001 40.028 3.538 40.354C5.6676 40.4605 7.78475 39.9715 9.652 38.942C9.75962 38.8877 9.89999 38.8192 10.0641 38.7391C11.2111 38.1794 13.5163 37.0546 13.882 36.262C13.7747 36.4954 13.6572 36.7448 13.5335 37.0074C12.3351 39.5503 10.5537 43.3303 11.868 45.832C13.634 49.226 18.16 42.858 19.06 41.538C19.1731 41.373 19.3339 41.1041 19.532 40.7727C20.7456 38.7426 23.3617 34.3665 25.026 37.138C25.8201 38.4383 26.0704 39.9884 26.3211 41.5415C26.6381 43.5047 26.9559 45.4729 28.374 46.948C31.458 50.156 33.194 45.228 33.194 42.804C33.1958 42.6337 33.1902 42.3906 33.1835 42.0976C33.1295 39.7489 33.002 34.1931 36 37.184C36.4409 37.6249 36.9276 38.1943 37.4541 38.8102C39.3231 40.9969 41.6941 43.7707 44.3 43.468C47.2218 43.1441 44.0855 39.206 42.4579 37.1624C42.0657 36.6699 41.7611 36.2874 41.65 36.092C42.154 36.494 46.694 39.308 46.694 36.982C46.7063 35.625 45.0345 34.4321 43.7315 33.5023C43.3388 33.222 42.9795 32.9657 42.71 32.736C38.41 29.07 39.27 25.436 41.2 20.724C44.578 12.564 39.022 3.21001 30.962 0.778008C22.252 -1.83399 12.62 2.28001 9.38 10.96C8.55935 13.17 8.20855 15.5268 8.35 17.88C8.4672 19.8812 9.13716 21.5829 9.82968 23.342C10.0944 24.0143 10.3623 24.695 10.604 25.404ZM26 21.7312C29.1653 21.7312 31.7312 19.1653 31.7312 16C31.7312 12.8347 29.1653 10.2688 26 10.2688C22.8347 10.2688 20.2688 12.8347 20.2688 16C20.2688 19.1653 22.8347 21.7312 26 21.7312Z" fill="url(#paint0_radial_6_61)" fill-opacity="0.35"/>
<path d="M71.693 27.313C71.693 21.1829 68.0982 17.3611 63.1411 17.3611C58.1841 17.3611 54.5893 21.1829 54.5893 27.313C54.5893 33.443 58.1841 37.2649 63.1411 37.2649C68.0982 37.2649 71.693 33.443 71.693 27.313ZM69.4226 27.313C69.4226 32.3457 66.6602 35.0702 63.1411 35.0702C59.622 35.0702 56.8597 32.3457 56.8597 27.313C56.8597 22.2802 59.622 19.5558 63.1411 19.5558C66.6602 19.5558 69.4226 22.2802 69.4226 27.313ZM91.2278 23.6803C90.5089 19.7071 87.3303 17.3611 83.4328 17.3611C78.4758 17.3611 74.881 21.1829 74.881 27.313C74.881 33.443 78.4758 37.2649 83.4328 37.2649C87.3303 37.2649 90.5089 34.9188 91.2278 30.9456H88.8818C88.3142 33.6322 86.0059 35.0702 83.4328 35.0702C79.9137 35.0702 77.1514 32.3457 77.1514 27.313C77.1514 22.2802 79.9137 19.5558 83.4328 19.5558C86.0059 19.5558 88.3142 20.9937 88.8818 23.6803H91.2278ZM93.9594 19.7071H100.052V37H102.398V19.7071H108.49V17.6259H93.9594V19.7071ZM127.651 27.313C127.651 21.1829 124.056 17.3611 119.099 17.3611C114.142 17.3611 110.548 21.1829 110.548 27.313C110.548 33.443 114.142 37.2649 119.099 37.2649C124.056 37.2649 127.651 33.443 127.651 27.313ZM125.381 27.313C125.381 32.3457 122.618 35.0702 119.099 35.0702C115.58 35.0702 112.818 32.3457 112.818 27.313C112.818 22.2802 115.58 19.5558 119.099 19.5558C122.618 19.5558 125.381 22.2802 125.381 27.313ZM131.596 37H133.942V29.9239H138.18C142.693 29.9239 144.726 27.1805 144.726 23.756C144.726 20.3315 142.693 17.6259 138.142 17.6259H131.596V37ZM133.942 27.8427V19.7071H138.067C141.217 19.7071 142.418 21.4288 142.418 23.756C142.418 26.0832 141.217 27.8427 138.104 27.8427H133.942ZM148.506 37H159.858V34.9188H150.852V17.6259H148.506V37ZM176.205 17.6259V30.2645C176.205 33.1025 174.256 35.1458 171.021 35.1458C167.785 35.1458 165.836 33.1025 165.836 30.2645V17.6259H163.49V30.4537C163.49 34.4269 166.461 37.3406 171.021 37.3406C175.58 37.3406 178.551 34.4269 178.551 30.4537V17.6259H176.205ZM193.831 22.4694H196.101C195.997 19.5463 193.301 17.3611 189.555 17.3611C185.847 17.3611 182.933 19.5179 182.933 22.7722C182.933 25.3831 184.825 26.9346 187.852 27.8049L190.236 28.486C192.28 29.0536 194.096 29.7726 194.096 31.7024C194.096 33.8214 192.052 35.2215 189.366 35.2215C187.058 35.2215 185.014 34.1998 184.825 32.0051H182.403C182.63 35.1837 185.203 37.3406 189.366 37.3406C193.831 37.3406 196.366 34.881 196.366 31.7402C196.366 28.1076 192.923 26.9346 190.917 26.4048L188.95 25.875C187.512 25.4966 185.203 24.7398 185.203 22.6586C185.203 20.8045 186.906 19.4422 189.479 19.4422C191.825 19.4422 193.604 20.5585 193.831 22.4694Z" fill="black"/>
<circle cx="119" cy="27" r="3" fill="#3699FF"/>
<defs>
<radialGradient id="paint0_radial_6_61" cx="0" cy="0" r="1" gradientUnits="userSpaceOnUse" gradientTransform="translate(28.6254 1.2957) rotate(106.535) scale(36.7369 34.7383)">
<stop stop-color="white"/>
<stop offset="1" stop-color="white" stop-opacity="0"/>
</radialGradient>
</defs>
</svg>
