<svg width="83" height="22" viewBox="0 0 83 22" fill="none" xmlns="http://www.w3.org/2000/svg">
<path d="M1.33118 12.6785C1.33118 13.2896 1.82652 13.7849 2.43755 13.7849L12.4841 13.7849C13.0933 13.7849 13.5872 13.2911 13.5872 12.6819L13.5872 2.63528C13.5872 2.02424 13.0918 1.5289 12.4808 1.5289L2.43755 1.5289C1.82652 1.5289 1.33118 2.02425 1.33118 2.63528L1.33118 12.6785Z" fill="#3E05E1" fill-opacity="0.7"/>
<path d="M7.45917 18.8079C7.45917 19.419 7.95451 19.9143 8.56554 19.9143L18.6088 19.9143C19.2198 19.9143 19.7152 19.419 19.7152 18.8079L19.7152 8.76467C19.7152 8.15364 19.2198 7.6583 18.6088 7.6583L8.56221 7.6583C7.95301 7.6583 7.45917 8.15215 7.45917 8.76134L7.45917 18.8079Z" fill="#00C0FD" fill-opacity="0.7"/>
<path d="M30.3942 17H27.4444V7.44113H30.5249C31.4521 7.44113 32.2456 7.63249 32.9053 8.01522C33.5649 8.39484 34.0706 8.94093 34.4222 9.65349C34.7738 10.3629 34.9496 11.2124 34.9496 12.2019C34.9496 13.1976 34.7722 14.0549 34.4175 14.7736C34.0628 15.4893 33.5463 16.0401 32.8679 16.4259C32.1896 16.8086 31.365 17 30.3942 17ZM28.6019 15.9732H30.3195C31.1099 15.9732 31.7649 15.8207 32.2845 15.5158C32.8041 15.2108 33.1915 14.7768 33.4467 14.2136C33.7018 13.6504 33.8294 12.9798 33.8294 12.2019C33.8294 11.4302 33.7034 10.7659 33.4513 10.2089C33.1993 9.64882 32.8228 9.21942 32.3218 8.9207C31.8209 8.61888 31.197 8.46796 30.4502 8.46796H28.6019V15.9732ZM38.983 17.168C38.5287 17.168 38.1164 17.0825 37.7461 16.9113C37.3758 16.7371 37.0818 16.4866 36.864 16.1599C36.6462 15.83 36.5373 15.4317 36.5373 14.965C36.5373 14.5543 36.6182 14.2213 36.78 13.9662C36.9418 13.7079 37.158 13.5057 37.4287 13.3594C37.6994 13.2132 37.9982 13.1043 38.3249 13.0327C38.6547 12.958 38.9861 12.8989 39.319 12.8553C39.7547 12.7993 40.1078 12.7573 40.3785 12.7293C40.6524 12.6982 40.8515 12.6469 40.976 12.5753C41.1035 12.5037 41.1673 12.3793 41.1673 12.2019V12.1646C41.1673 11.704 41.0413 11.3462 40.7893 11.0911C40.5403 10.8359 40.1623 10.7083 39.6551 10.7083C39.1292 10.7083 38.7169 10.8235 38.4182 11.0537C38.1195 11.284 37.9095 11.5298 37.7881 11.7912L36.7426 11.4178C36.9293 10.9821 37.1783 10.643 37.4894 10.4003C37.8037 10.1545 38.146 9.98332 38.5162 9.88686C38.8896 9.78729 39.2568 9.7375 39.6178 9.7375C39.848 9.7375 40.1125 9.7655 40.4112 9.82151C40.713 9.87441 41.004 9.98487 41.284 10.1529C41.5672 10.3209 41.8021 10.5745 41.9888 10.9137C42.1755 11.2529 42.2688 11.7071 42.2688 12.2766V17H41.1673V16.0292H41.1113C41.0366 16.1848 40.9122 16.3512 40.7379 16.5286C40.5637 16.706 40.3319 16.8569 40.0425 16.9813C39.7531 17.1058 39.3999 17.168 38.983 17.168ZM39.151 16.1785C39.5866 16.1785 39.9538 16.093 40.2525 15.9218C40.5543 15.7507 40.7815 15.5298 40.934 15.2591C41.0895 14.9883 41.1673 14.7036 41.1673 14.4049V13.3968C41.1207 13.4528 41.018 13.5041 40.8593 13.5508C40.7037 13.5943 40.5232 13.6332 40.3179 13.6675C40.1156 13.6986 39.918 13.7266 39.7251 13.7515C39.5353 13.7733 39.3813 13.7919 39.263 13.8075C38.9768 13.8448 38.7092 13.9055 38.4602 13.9895C38.2144 14.0704 38.0153 14.1933 37.8628 14.3582C37.7134 14.52 37.6388 14.741 37.6388 15.021C37.6388 15.4037 37.7803 15.6931 38.0635 15.8892C38.3498 16.0821 38.7123 16.1785 39.151 16.1785ZM47.5286 9.83085V10.7643H43.8133V9.83085H47.5286ZM44.8962 8.11324H45.9977V14.9463C45.9977 15.2575 46.0428 15.4909 46.133 15.6464C46.2264 15.7989 46.3446 15.9016 46.4878 15.9545C46.634 16.0043 46.788 16.0292 46.9498 16.0292C47.0712 16.0292 47.1708 16.023 47.2486 16.0105C47.3264 15.9949 47.3886 15.9825 47.4353 15.9732L47.6593 16.9627C47.5846 16.9907 47.4804 17.0187 47.3466 17.0467C47.2128 17.0778 47.0432 17.0933 46.8378 17.0933C46.5267 17.0933 46.2217 17.0264 45.923 16.8926C45.6274 16.7589 45.3816 16.555 45.1856 16.2812C44.9926 16.0074 44.8962 15.662 44.8962 15.2451V8.11324ZM51.4266 17.168C50.9723 17.168 50.5601 17.0825 50.1898 16.9113C49.8195 16.7371 49.5254 16.4866 49.3076 16.1599C49.0898 15.83 48.9809 15.4317 48.9809 14.965C48.9809 14.5543 49.0618 14.2213 49.2236 13.9662C49.3854 13.7079 49.6017 13.5057 49.8724 13.3594C50.1431 13.2132 50.4418 13.1043 50.7685 13.0327C51.0984 12.958 51.4298 12.8989 51.7627 12.8553C52.1983 12.7993 52.5515 12.7573 52.8222 12.7293C53.096 12.6982 53.2952 12.6469 53.4196 12.5753C53.5472 12.5037 53.611 12.3793 53.611 12.2019V12.1646C53.611 11.704 53.485 11.3462 53.2329 11.0911C52.984 10.8359 52.6059 10.7083 52.0988 10.7083C51.5729 10.7083 51.1606 10.8235 50.8619 11.0537C50.5632 11.284 50.3531 11.5298 50.2318 11.7912L49.1863 11.4178C49.373 10.9821 49.6219 10.643 49.9331 10.4003C50.2473 10.1545 50.5896 9.98332 50.9599 9.88686C51.3333 9.78729 51.7005 9.7375 52.0614 9.7375C52.2917 9.7375 52.5562 9.7655 52.8549 9.82151C53.1567 9.87441 53.4476 9.98487 53.7277 10.1529C54.0108 10.3209 54.2458 10.5745 54.4325 10.9137C54.6192 11.2529 54.7125 11.7071 54.7125 12.2766V17H53.611V16.0292H53.555C53.4803 16.1848 53.3558 16.3512 53.1816 16.5286C53.0073 16.706 52.7755 16.8569 52.4861 16.9813C52.1968 17.1058 51.8436 17.168 51.4266 17.168ZM51.5947 16.1785C52.0303 16.1785 52.3975 16.093 52.6962 15.9218C52.998 15.7507 53.2252 15.5298 53.3776 15.2591C53.5332 14.9883 53.611 14.7036 53.611 14.4049V13.3968C53.5643 13.4528 53.4616 13.5041 53.3029 13.5508C53.1474 13.5943 52.9669 13.6332 52.7615 13.6675C52.5593 13.6986 52.3617 13.7266 52.1688 13.7515C51.979 13.7733 51.8249 13.7919 51.7067 13.8075C51.4204 13.8448 51.1528 13.9055 50.9039 13.9895C50.6581 14.0704 50.4589 14.1933 50.3065 14.3582C50.1571 14.52 50.0824 14.741 50.0824 15.021C50.0824 15.4037 50.224 15.6931 50.5072 15.8892C50.7934 16.0821 51.1559 16.1785 51.5947 16.1785Z" fill="#979797"/>
<path d="M56.8544 19.6884V9.83085H57.9186V10.9697H58.0493C58.1302 10.8452 58.2422 10.6865 58.3853 10.4936C58.5316 10.2976 58.7401 10.1233 59.0108 9.97087C59.2846 9.81529 59.6549 9.7375 60.1216 9.7375C60.7253 9.7375 61.2574 9.88841 61.7179 10.1902C62.1784 10.4921 62.5378 10.9199 62.7961 11.4738C63.0543 12.0276 63.1834 12.6811 63.1834 13.4341C63.1834 14.1933 63.0543 14.8514 62.7961 15.4084C62.5378 15.9623 62.18 16.3917 61.7225 16.6966C61.2651 16.9984 60.7377 17.1494 60.1403 17.1494C59.6798 17.1494 59.311 17.0731 59.0341 16.9207C58.7572 16.7651 58.544 16.5893 58.3947 16.3932C58.2453 16.1941 58.1302 16.0292 58.0493 15.8985H57.9559V19.6884H56.8544ZM57.9373 13.4154C57.9373 13.9568 58.0166 14.4345 58.1753 14.8483C58.334 15.2591 58.5658 15.5811 58.8708 15.8145C59.1757 16.0447 59.5491 16.1599 59.9909 16.1599C60.4515 16.1599 60.8357 16.0385 61.1438 15.7958C61.4549 15.55 61.6883 15.2202 61.8439 14.8063C62.0026 14.3894 62.0819 13.9257 62.0819 13.4154C62.0819 12.9113 62.0041 12.457 61.8486 12.0525C61.6961 11.6449 61.4643 11.3229 61.1531 11.0864C60.8451 10.8468 60.4577 10.727 59.9909 10.727C59.5429 10.727 59.1664 10.8406 58.8614 11.0677C58.5565 11.2917 58.3262 11.606 58.1706 12.0105C58.0151 12.4119 57.9373 12.8802 57.9373 13.4154ZM66.0967 7.44113V17H64.9952V7.44113H66.0967ZM72.7636 14.0689V9.83085H73.8652V17H72.7636V15.7865H72.689C72.5209 16.1505 72.2596 16.4601 71.9048 16.7153C71.5501 16.9673 71.102 17.0933 70.5606 17.0933C70.1126 17.0933 69.7143 16.9953 69.3658 16.7993C69.0173 16.6002 68.7434 16.3014 68.5443 15.9032C68.3452 15.5018 68.2456 14.9961 68.2456 14.3862V9.83085H69.3471V14.3116C69.3471 14.8343 69.4933 15.2513 69.7858 15.5624C70.0814 15.8736 70.4579 16.0292 70.9153 16.0292C71.1892 16.0292 71.4677 15.9592 71.7508 15.8191C72.0371 15.6791 72.2767 15.4644 72.4696 15.175C72.6656 14.8857 72.7636 14.5169 72.7636 14.0689ZM81.0922 11.4364L80.1027 11.7165C80.0405 11.5516 79.9487 11.3913 79.8274 11.2357C79.7091 11.077 79.5473 10.9464 79.3419 10.8437C79.1366 10.741 78.8736 10.6897 78.5532 10.6897C78.1144 10.6897 77.7488 10.7908 77.4563 10.993C77.1669 11.1922 77.0222 11.4458 77.0222 11.7538C77.0222 12.0276 77.1218 12.2439 77.321 12.4026C77.5201 12.5613 77.8313 12.6935 78.2544 12.7993L79.3186 13.0607C79.9596 13.2163 80.4372 13.4543 80.7515 13.7748C81.0658 14.0922 81.2229 14.5014 81.2229 15.0023C81.2229 15.4131 81.1047 15.7802 80.8682 16.1039C80.6348 16.4275 80.3081 16.6826 79.888 16.8693C79.468 17.056 78.9794 17.1494 78.4225 17.1494C77.6912 17.1494 77.086 16.9907 76.6068 16.6733C76.1277 16.3559 75.8243 15.8923 75.6967 15.2824L76.7422 15.021C76.8418 15.4069 77.03 15.6962 77.307 15.8892C77.587 16.0821 77.9526 16.1785 78.4038 16.1785C78.9172 16.1785 79.3248 16.0696 79.6267 15.8518C79.9316 15.6309 80.0841 15.3664 80.0841 15.0584C80.0841 14.8094 79.9969 14.6009 79.8227 14.4329C79.6484 14.2618 79.3808 14.1342 79.0199 14.0502L77.825 13.7701C77.1685 13.6146 76.6862 13.3734 76.3781 13.0467C76.0732 12.7169 75.9207 12.3046 75.9207 11.8098C75.9207 11.4053 76.0343 11.0475 76.2615 10.7363C76.4917 10.4252 76.8044 10.1809 77.1996 10.0035C77.5979 9.82618 78.0491 9.7375 78.5532 9.7375C79.2626 9.7375 79.8196 9.89308 80.2241 10.2042C80.6317 10.5154 80.9211 10.9261 81.0922 11.4364Z" fill="#4DD3FE"/>
</svg>
