<svg width="14" height="66" viewBox="0 0 14 66" fill="none" xmlns="http://www.w3.org/2000/svg">
<path d="M0 0L14 8V58L0 66V0Z" fill="white"/>
<path d="M9.77126 32.6853L4.13626 28.284C4.12153 28.2725 4.10384 28.2652 4.0852 28.2633C4.06657 28.2613 4.04775 28.2646 4.03091 28.2728C4.01407 28.281 3.99989 28.2938 3.99001 28.3097C3.98012 28.3257 3.97492 28.3441 3.97501 28.3628V29.329C3.97501 29.3903 4.00376 29.449 4.05126 29.4865L8.55126 33.0003L4.05126 36.514C4.00251 36.5515 3.97501 36.6103 3.97501 36.6715V37.6378C3.97501 37.7215 4.07126 37.7678 4.13626 37.7165L9.77126 33.3153C9.81915 33.2779 9.8579 33.2301 9.88454 33.1756C9.91119 33.121 9.92504 33.061 9.92504 33.0003C9.92504 32.9396 9.91119 32.8796 9.88454 32.825C9.8579 32.7704 9.81915 32.7227 9.77126 32.6853Z" fill="black" fill-opacity="0.45"/>
</svg>
